<?xml version="1.0" standalone="no"?>
<!DOCTYPE svg PUBLIC "-//W3C//DTD SVG 20010904//EN"
 "http://www.w3.org/TR/2001/REC-SVG-20010904/DTD/svg10.dtd">
<svg version="1.0" xmlns="http://www.w3.org/2000/svg"
 width="587.000000pt" height="587.000000pt" viewBox="0 0 587.000000 587.000000"
 preserveAspectRatio="xMidYMid meet">
<metadata>
Created by potrace 1.11, written by Peter Selinger 2001-2013
</metadata>
<g transform="translate(0.000000,587.000000) scale(0.100000,-0.100000)"
fill="#000000" stroke="none">
<path d="M2576 5845 c-22 -12 -32 -12 -43 -4 -10 9 -47 9 -150 0 -75 -7 -141
-15 -148 -18 -22 -8 -38 -59 -26 -81 14 -26 6 -32 -44 -32 -40 0 -41 1 -37 28
7 49 -20 66 -97 59 -146 -13 -618 -114 -648 -138 -16 -14 -17 -71 -1 -87 7 -7
8 -15 3 -21 -6 -4 -85 -34 -177 -66 -92 -31 -173 -64 -180 -73 -9 -10 -15 -66
-18 -170 l-5 -155 -57 -21 c-31 -12 -65 -29 -75 -39 -11 -9 -31 -17 -45 -17
-27 0 -174 -59 -216 -86 -29 -19 -30 -73 -2 -99 17 -15 20 -31 20 -105 0 -74
-3 -90 -20 -105 -21 -19 -28 -89 -10 -100 19 -12 10 -35 -60 -142 -377 -577
-527 -1311 -409 -2003 189 -1115 1025 -2012 2124 -2281 237 -58 373 -73 665
-73 277 -1 345 5 570 50 1083 216 1954 1065 2200 2144 53 231 64 341 65 630 0
326 -21 494 -97 765 -67 244 -192 528 -317 727 -34 53 -61 102 -61 110 0 23
-46 112 -84 161 l-36 47 50 108 c31 64 49 115 46 127 -3 12 -41 44 -88 74
-100 65 -156 76 -211 42 l-35 -22 -12 35 c-6 20 -25 46 -41 60 l-29 25 0 148
c0 81 -4 154 -8 161 -9 14 -107 53 -257 102 -55 18 -102 34 -104 36 -2 2 2 10
8 18 7 8 11 30 9 48 -3 28 -11 37 -53 61 -34 19 -62 27 -90 25 -22 -1 -50 4
-62 10 -29 16 -232 55 -250 48 -8 -3 -27 1 -43 9 -55 28 -136 10 -160 -35 -15
-29 -27 -25 -22 8 5 39 -26 63 -94 74 -44 7 -61 5 -79 -6 -20 -13 -24 -13 -41
4 -15 14 -48 21 -154 31 -107 10 -386 17 -470 12 -8 -1 -59 1 -113 4 -59 2
-103 0 -110 -6 -8 -6 -18 -6 -27 -1 -23 15 -112 11 -144 -5z m376 -65 c24 -29
23 -63 -3 -115 -21 -42 -21 -44 -5 -119 11 -47 24 -79 34 -86 13 -7 9 -9 -20
-10 -40 0 -39 -3 -59 92 -7 32 -16 55 -21 52 -5 -4 -7 -17 -4 -30 5 -17 2 -24
-9 -24 -19 0 -21 -76 -2 -83 6 -3 -6 -6 -28 -6 l-40 -1 3 74 c2 41 -1 83 -7
94 -7 13 -7 22 1 30 6 6 9 41 6 87 l-4 77 70 -5 c57 -4 73 -9 88 -27z m123 22
c18 -6 20 -17 23 -90 1 -45 6 -99 10 -119 7 -36 9 -32 31 65 13 56 21 111 18
122 -4 17 0 20 34 20 44 0 45 -2 25 -33 -22 -35 -79 -282 -71 -308 6 -18 4
-21 -10 -16 -9 4 -33 7 -53 7 -26 0 -33 3 -23 9 20 13 8 137 -15 162 -12 14
-13 19 -4 19 16 0 8 126 -9 143 -25 25 -3 34 44 19z m-391 -16 c-8 -20 46
-286 63 -313 13 -21 12 -23 -11 -23 -13 0 -31 -3 -40 -6 -13 -5 -15 -1 -10 24
3 16 1 38 -5 49 -10 17 -10 16 -11 -4 0 -13 -6 -23 -14 -23 -8 0 -16 10 -19
23 -3 20 -4 20 -12 -7 -5 -19 -4 -36 4 -48 10 -17 7 -18 -35 -18 -44 0 -46 1
-31 18 21 23 35 146 18 157 -9 5 -8 10 4 18 17 13 38 121 29 149 -4 15 1 18
35 18 31 0 39 -3 35 -14z m683 4 c63 0 65 -1 58 -22 -18 -60 -22 -88 -14 -88
5 0 9 -4 9 -10 0 -23 -30 -8 -36 18 -12 55 -16 62 -33 62 -19 0 -31 -35 -31
-87 0 -20 4 -24 20 -20 17 4 20 0 20 -30 0 -31 -2 -34 -15 -23 -22 18 -28 7
-33 -61 -4 -59 -4 -61 19 -57 18 2 27 13 37 43 16 50 28 63 44 47 9 -9 9 -12
-1 -12 -11 0 -12 -13 -8 -60 l7 -60 -43 1 c-42 0 -142 15 -120 18 16 2 28 126
15 156 -9 18 -8 26 5 36 12 10 14 29 11 86 -3 59 -1 72 10 68 8 -3 43 -5 79
-5z m-874 -21 c-8 -28 17 -301 28 -315 10 -12 -17 -24 -55 -24 -14 0 -16 3 -7
14 12 15 4 186 -9 186 -4 0 -11 -45 -15 -100 -5 -65 -11 -100 -19 -100 -6 0
-26 48 -44 108 l-32 107 6 -100 c3 -55 11 -106 16 -112 8 -10 2 -13 -23 -13
l-34 0 -1 69 c-1 38 -5 77 -9 87 -4 11 -7 53 -6 95 2 51 -1 79 -9 84 -18 11 8
25 48 25 26 0 32 -4 32 -22 0 -37 32 -140 41 -131 5 5 10 43 11 86 l3 77 42 0
c37 0 41 -2 36 -21z m1041 5 c11 -4 12 -10 5 -22 -13 -23 -38 -285 -28 -296
15 -17 37 3 44 41 9 49 22 73 40 73 19 0 18 -10 -1 -35 -11 -15 -13 -33 -8
-73 l6 -52 -73 6 c-83 8 -86 9 -72 26 14 17 22 127 12 155 -5 14 -4 23 3 25
15 5 28 129 15 146 -7 9 -3 12 16 12 14 0 32 -3 41 -6z m186 -20 c20 -5 27
-10 19 -14 -7 -5 -20 -65 -30 -142 -23 -168 -23 -168 0 -168 15 0 23 13 35 54
17 57 28 72 47 61 7 -5 4 -13 -7 -26 -13 -15 -16 -30 -11 -75 l6 -56 -72 7
c-75 7 -96 13 -79 24 14 8 31 132 22 156 -5 12 -3 25 5 32 13 12 30 127 20
143 -7 12 1 12 45 4z m-1655 -53 c-4 -31 -3 -51 4 -56 16 -9 14 -25 -3 -25 -8
0 -20 16 -26 35 -10 30 -43 55 -57 42 -2 -3 -2 -30 2 -61 5 -38 12 -56 21 -56
8 0 14 5 14 10 0 6 4 10 9 10 5 0 11 -16 13 -35 4 -32 2 -34 -20 -28 -23 5
-24 4 -18 -26 3 -17 9 -44 12 -61 4 -21 11 -30 25 -30 19 0 26 17 31 75 2 18
9 31 19 33 12 2 15 -4 11 -26 -2 -16 3 -45 12 -65 8 -20 12 -38 8 -41 -4 -2
-29 -6 -57 -10 -27 -4 -63 -9 -80 -13 -24 -5 -28 -3 -18 8 14 18 -3 137 -23
160 -9 10 -10 19 -4 25 12 12 -8 136 -24 146 -6 4 -9 8 -6 9 5 1 133 24 153
28 5 0 6 -21 2 -48z m1887 18 c25 -13 48 -68 48 -114 0 -20 -7 -68 -16 -108
-13 -55 -24 -79 -49 -104 -39 -39 -46 -40 -82 -9 -27 23 -28 28 -28 108 1 102
24 177 66 213 35 29 34 28 61 14z m-2094 -31 c0 -39 53 -292 64 -306 14 -16
11 -18 -37 -26 -25 -4 -35 -3 -27 2 11 8 12 20 2 68 -6 33 -14 67 -16 77 -8
27 -25 9 -18 -19 5 -18 2 -24 -10 -24 -9 0 -16 8 -16 19 0 11 -4 23 -10 26
-14 8 -12 -19 4 -89 8 -32 20 -62 27 -67 11 -7 9 -9 -6 -9 -11 0 -31 -3 -44
-7 -17 -4 -22 -3 -17 5 8 14 -13 132 -27 150 -5 7 -11 39 -12 71 -1 32 -9 73
-18 90 -8 17 -12 31 -7 31 4 0 20 3 36 6 l29 5 1 -61 c2 -71 22 -103 52 -83
20 13 19 82 -2 125 -15 29 -10 36 30 37 16 1 22 -5 22 -21z m2241 6 c23 -5 29
-10 22 -18 -14 -16 -64 -275 -57 -292 8 -21 54 -17 60 4 4 10 17 74 30 143 18
91 21 128 13 137 -9 11 -4 12 29 6 45 -8 53 -12 38 -22 -6 -4 -21 -59 -33
-122 -28 -147 -38 -178 -61 -190 -31 -16 -78 -12 -100 10 -18 18 -20 31 -18
105 2 47 6 85 10 85 10 0 31 109 25 136 -5 26 -4 27 42 18z m-2459 -83 c0 -33
5 -63 10 -66 15 -9 12 -25 -4 -25 -8 0 -20 19 -28 42 -12 38 -40 69 -52 57 -8
-7 66 -293 78 -301 14 -9 7 -14 -33 -23 -23 -5 -31 -4 -27 4 8 12 -21 130 -37
149 -6 7 -11 34 -13 60 -2 56 -20 106 -34 97 -5 -3 -10 -33 -10 -66 0 -32 -4
-59 -9 -59 -15 0 -23 18 -11 25 7 4 1 25 -16 56 -15 27 -25 51 -23 53 4 4 183
53 202 55 4 1 7 -26 7 -58z m2764 13 l34 -17 -43 -55 -44 -56 26 -43 c33 -57
27 -106 -17 -145 -36 -33 -40 -33 -108 -10 l-51 18 25 38 c14 20 24 45 22 56
-2 10 2 20 7 22 6 2 12 -22 15 -52 5 -53 6 -55 35 -55 23 0 32 6 39 28 11 29
-2 82 -19 82 -15 0 -18 -37 -4 -46 17 -10 4 -23 -16 -16 -17 7 -20 39 -5 67 7
13 4 31 -11 65 -23 52 -20 84 11 115 24 24 58 25 104 4z m-2992 -163 l16 -29
-101 -36 c-56 -20 -120 -42 -142 -50 l-40 -13 -3 -99 c-3 -96 -3 -99 -29 -111
-15 -7 -31 -13 -35 -13 -4 0 -8 60 -8 134 l0 134 158 55 c86 30 159 55 162 56
3 0 12 -12 22 -28z m3231 -36 l137 -48 0 -132 0 -133 -35 16 -34 16 -3 94 -3
94 -90 33 c-83 30 -92 35 -114 75 -16 29 -20 42 -10 38 8 -3 76 -27 152 -53z
m-1540 -66 c49 -13 81 -61 107 -162 54 -214 49 -667 -11 -859 -13 -40 -33 -78
-51 -97 -30 -31 -31 -31 -134 -31 l-104 0 17 27 c16 23 18 57 21 250 3 222 3
223 -22 277 -31 65 -31 62 -7 69 27 7 34 74 29 300 -3 159 -5 188 -20 204 -10
11 -18 23 -18 26 0 11 151 8 193 -4z m-363 -9 c11 -6 30 -29 44 -53 58 -99 82
-298 72 -597 -8 -278 -30 -389 -87 -455 l-31 -35 -111 0 -111 0 22 20 c21 20
22 27 22 263 0 225 -2 244 -20 267 -23 29 -26 70 -6 70 23 0 26 24 26 234 0
193 -9 266 -31 266 -22 0 -6 19 19 23 56 8 174 7 192 -3z m758 -12 l114 -11
-6 -36 c-3 -20 -13 -72 -21 -116 -16 -92 -19 -175 -6 -175 14 0 23 -37 16 -60
-9 -27 -34 -25 -45 4 -4 13 -14 61 -20 107 -14 103 -35 166 -62 180 -45 24
-48 12 -48 -191 0 -176 1 -190 18 -190 23 0 42 19 42 42 0 10 5 18 10 18 6 0
10 -46 10 -119 0 -69 -4 -122 -10 -126 -5 -3 -10 2 -10 11 0 24 -29 54 -52 54
-17 0 -18 -12 -18 -191 0 -112 4 -198 10 -210 20 -36 68 -15 84 36 3 11 12 69
21 129 16 114 34 159 63 154 23 -4 29 -56 8 -64 -13 -5 -16 -24 -15 -103 0
-53 6 -134 13 -181 8 -47 11 -88 7 -91 -3 -3 -75 -4 -159 -1 -152 4 -153 4
-135 24 16 18 18 45 21 260 3 226 2 241 -17 272 -26 42 -26 62 -1 69 19 5 20
14 22 209 1 243 0 257 -18 286 -14 22 -14 22 28 22 23 0 93 -5 156 -12z
m-1135 -4 c3 -4 0 -16 -8 -28 -21 -29 -20 -49 34 -565 44 -409 52 -467 70
-492 12 -15 21 -31 21 -34 0 -3 -38 -5 -85 -5 l-84 0 21 35 c18 32 20 45 13
117 -3 44 -10 90 -14 101 -12 33 -25 1 -26 -63 0 -49 -2 -55 -22 -58 -25 -4
-26 -1 -27 82 -1 64 -21 71 -30 10 -13 -94 -7 -170 14 -197 17 -22 18 -26 4
-31 -23 -9 -142 -7 -148 2 -3 5 6 30 19 58 19 39 27 83 39 214 20 207 20 244
1 260 -19 16 -20 60 0 60 25 0 33 32 49 185 19 173 20 278 5 307 -6 11 -9 22
-7 24 3 2 36 8 74 13 38 4 72 9 75 10 3 0 9 -2 12 -5z m1407 -30 c61 -9 65
-13 41 -38 -21 -22 -22 -31 -24 -492 l-2 -469 27 -3 c39 -5 49 22 60 157 10
128 19 175 43 209 20 27 31 28 45 2 13 -25 4 -60 -15 -60 -31 0 -31 -187 -1
-330 11 -49 12 -67 3 -72 -17 -11 -269 -10 -286 1 -11 7 -10 11 5 19 16 9 20
28 26 124 3 62 7 167 7 233 1 102 -2 126 -19 158 -11 20 -20 43 -20 51 0 7 9
16 20 19 19 5 20 15 22 174 4 259 3 281 -15 301 -24 26 -21 34 11 28 15 -3 47
-8 72 -12z m-1820 -63 c66 -48 84 -231 38 -373 -25 -75 -25 -77 -7 -107 50
-83 78 -251 59 -366 -23 -144 -71 -185 -226 -193 -52 -3 -94 -2 -94 2 0 4 7
18 16 31 14 21 16 54 13 233 -4 197 -5 209 -27 236 -28 36 -28 52 -1 59 21 6
21 9 18 217 -4 195 -6 213 -23 226 -11 7 -17 17 -13 20 12 12 172 42 197 38
14 -3 36 -13 50 -23z m2258 -21 c62 -15 115 -30 118 -32 3 -3 -4 -51 -16 -106
-24 -119 -25 -165 -5 -182 20 -17 19 -49 -1 -57 -27 -10 -41 21 -54 115 -7 48
-18 101 -25 119 -15 34 -58 69 -75 58 -6 -4 -10 -70 -10 -181 l0 -175 22 3
c13 2 29 16 38 33 l15 30 3 -25 c2 -14 1 -67 -3 -119 -7 -91 -8 -94 -21 -63
-7 18 -17 32 -23 32 -5 0 -16 3 -25 6 -14 5 -16 -14 -16 -179 0 -166 2 -187
17 -196 43 -24 75 27 93 149 16 107 33 150 58 150 18 0 32 -18 32 -40 0 -5
-10 -18 -22 -30 -22 -20 -22 -22 -10 -138 7 -64 15 -134 18 -154 l7 -38 -155
0 c-85 0 -158 3 -161 7 -4 3 1 12 10 18 22 16 31 113 32 315 1 129 -1 148 -19
175 -25 37 -26 63 -2 61 14 -1 18 11 23 74 4 41 7 139 8 216 1 130 -1 143 -20
168 l-22 27 39 -7 c22 -4 90 -19 152 -34z m321 -85 c11 -4 10 -9 -5 -26 -17
-19 -17 -24 1 -155 10 -74 22 -137 25 -139 4 -3 12 19 18 48 6 28 18 83 26
121 13 62 13 72 0 98 -9 17 -14 32 -11 34 2 2 38 -8 81 -22 l78 -26 -26 -27
c-19 -20 -38 -73 -79 -226 -54 -197 -55 -202 -62 -382 -7 -175 -6 -182 14
-202 12 -12 21 -23 21 -26 0 -3 -36 -5 -80 -5 -44 0 -80 2 -80 5 0 3 8 13 18
23 16 16 20 43 25 213 l7 194 -30 25 c-32 26 -40 60 -15 60 11 0 15 11 15 38
0 60 -58 352 -75 378 -8 13 -15 28 -15 33 0 8 96 -14 149 -34z m-3097 -22 c27
-24 41 -81 41 -163 0 -79 -9 -118 -50 -212 l-25 -56 32 -184 c40 -232 46 -255
71 -269 33 -17 8 -31 -52 -27 l-53 3 -32 187 c-17 104 -33 190 -36 193 -6 6
-38 -56 -38 -73 0 -5 7 -12 15 -16 23 -9 19 -53 -6 -61 -14 -5 -25 -2 -30 6
-5 9 -9 -27 -9 -89 0 -90 2 -104 20 -119 11 -10 20 -21 20 -25 0 -5 -37 -8
-82 -8 l-81 0 23 25 c22 24 23 27 18 198 -4 162 -6 176 -28 205 l-23 31 22 18
c22 18 22 23 19 190 -3 156 -5 173 -22 186 -18 13 -11 17 75 45 52 17 103 33
114 35 30 7 78 -3 97 -20z m-365 -80 c-8 -10 -18 -29 -21 -43 -3 -14 -3 -188
2 -388 6 -330 9 -365 25 -376 9 -7 17 -16 17 -20 0 -3 -35 -6 -77 -6 l-76 0
21 23 c20 21 22 33 21 143 -1 65 -4 182 -8 259 l-6 140 -28 -210 c-46 -347
-47 -356 -66 -353 -12 3 -25 54 -61 243 l-45 240 -3 -225 c-2 -223 -2 -225 20
-242 22 -17 21 -18 -62 -18 -79 0 -83 1 -62 16 21 14 22 22 22 158 0 130 -2
145 -20 161 -25 23 -25 31 0 38 19 5 20 14 20 146 0 123 -2 141 -17 150 -15 8
-7 15 48 39 74 33 109 46 109 38 0 -2 -4 -15 -9 -28 -6 -17 1 -71 23 -183 20
-99 35 -152 39 -140 14 44 49 331 44 362 -6 32 -5 32 71 62 90 35 101 37 79
14z m3783 -23 c13 -25 13 -141 -1 -177 -13 -34 -58 -83 -76 -83 -10 0 -6 13
12 43 30 53 31 67 5 109 -39 64 -17 163 30 138 11 -6 24 -19 30 -30z m280 -96
c36 -25 65 -48 64 -52 0 -4 -19 -47 -42 -96 -59 -125 -59 -122 -11 -186 82
-109 101 -175 75 -264 -17 -58 -65 -110 -112 -122 -14 -4 -57 0 -95 9 -39 8
-79 13 -89 10 -25 -7 -25 -4 5 82 35 102 42 153 21 161 -24 9 -21 54 4 54 26
0 35 -26 44 -125 9 -97 24 -125 69 -125 44 0 77 35 84 88 7 53 1 76 -37 136
-36 56 -47 52 -56 -16 -6 -43 -5 -47 17 -50 30 -4 39 -45 13 -55 -12 -4 -25 2
-41 21 -26 30 -29 72 -12 141 10 40 9 46 -14 77 -14 18 -37 58 -51 88 -46 100
-46 184 0 240 39 46 82 41 164 -16z m-3480 -530 c6 -14 10 -49 10 -79 0 -69
-14 -105 -40 -105 -31 0 -52 43 -53 108 0 70 15 102 49 102 17 0 27 -8 34 -26z
m-1090 -202 c-175 -319 -271 -602 -327 -962 -25 -163 -25 -587 0 -750 49 -314
124 -557 257 -825 145 -293 295 -502 524 -730 416 -413 917 -665 1512 -760
137 -22 518 -31 670 -16 444 46 862 195 1229 439 186 124 305 223 461 385 393
406 641 911 730 1482 27 171 27 627 0 800 -47 312 -160 645 -305 906 -40 73
-50 99 -46 121 4 15 10 30 15 33 19 12 175 -294 245 -480 124 -332 177 -625
177 -980 0 -615 -186 -1173 -558 -1673 -116 -155 -391 -430 -546 -546 -335
-249 -699 -415 -1098 -500 -215 -45 -280 -51 -585 -51 -254 1 -306 3 -419 23
-622 108 -1149 384 -1571 823 -407 423 -657 934 -752 1539 -25 164 -25 606 0
770 52 329 137 595 281 877 36 70 89 164 118 208 l53 80 3 -42 c3 -35 -7 -60
-68 -171z m3681 -52 c100 -28 128 -170 49 -245 -28 -27 -38 -30 -95 -30 -59 0
-67 3 -97 32 -28 28 -33 40 -36 95 -3 54 0 68 20 98 14 20 38 40 58 47 44 15
56 15 101 3z m938 -6 c2 -2 -15 -24 -38 -50 -24 -25 -40 -48 -36 -52 3 -3 27
-18 53 -32 39 -21 48 -31 50 -56 2 -24 -3 -36 -23 -53 -37 -28 -80 -35 -180
-26 l-85 7 25 36 c22 32 23 37 8 47 -21 16 -4 25 25 14 14 -5 22 -17 22 -32 0
-33 18 -47 63 -47 79 0 104 44 45 80 -31 19 -34 19 -46 2 -11 -15 -10 -18 8
-22 12 -3 21 -9 21 -15 0 -18 -27 -16 -51 3 -19 16 -21 22 -11 40 10 19 9 23
-6 29 -40 14 -83 54 -83 78 0 25 19 40 69 56 24 7 160 1 170 -7z m-4249 -12
c48 -24 51 -53 7 -86 -19 -14 -36 -26 -40 -26 -3 0 -26 -9 -52 -20 -40 -17
-45 -23 -35 -35 10 -12 9 -16 -3 -21 -9 -3 -21 -3 -27 1 -6 4 -10 -5 -10 -24
0 -18 7 -34 18 -40 13 -8 -2 -10 -58 -10 -56 0 -71 2 -57 10 23 13 25 117 2
125 -8 4 -15 10 -15 15 0 5 7 9 15 9 19 0 22 106 3 113 -7 3 39 6 102 6 91 1
122 -3 150 -17z m365 6 c14 -6 28 -23 32 -37 5 -20 -1 -31 -32 -58 l-39 -33
29 -60 c19 -41 37 -62 54 -69 22 -8 16 -10 -34 -10 l-60 -1 -27 60 c-20 45
-30 59 -42 54 -18 -7 -22 -24 -5 -24 5 0 7 -5 3 -11 -3 -6 -17 -8 -30 -5 -21
6 -24 3 -24 -23 0 -18 7 -34 18 -40 13 -8 -1 -10 -53 -10 -52 0 -66 2 -52 10
13 8 17 23 17 64 0 46 -3 56 -22 66 l-22 12 22 8 c19 7 22 16 22 58 0 30 -5
51 -12 54 -7 3 42 6 109 6 74 1 132 -4 148 -11z m238 5 c-10 -3 -13 -39 -13
-128 0 -108 2 -125 18 -134 13 -8 -2 -10 -58 -10 -56 0 -71 2 -57 10 23 13 25
117 2 125 -8 4 -15 10 -15 15 0 5 7 9 15 9 19 0 22 106 3 113 -7 3 16 5 52 5
36 0 59 -2 53 -5z m240 -59 l57 -65 0 60 c0 38 -4 61 -12 64 -7 3 14 5 47 5
33 0 54 -2 48 -5 -10 -3 -13 -39 -13 -129 0 -117 1 -124 20 -124 11 0 20 -4
20 -10 0 -12 -49 -13 -66 -2 -7 4 -48 51 -93 106 l-81 98 0 -95 c0 -81 3 -98
18 -106 13 -8 -1 -10 -53 -10 -52 0 -66 2 -52 10 23 13 25 117 2 125 -8 4 -15
10 -15 15 0 5 7 9 15 9 19 0 22 106 3 113 -7 3 12 6 42 6 l55 1 58 -66z m550
25 c-27 -40 -27 -42 -8 -56 19 -14 18 -14 -10 -11 -24 2 -30 9 -36 37 -8 38
-24 52 -54 49 -19 -3 -20 -12 -23 -121 -3 -114 -2 -118 20 -127 17 -6 4 -9
-52 -9 -56 0 -70 2 -57 10 23 13 25 117 2 125 -8 4 -15 10 -15 15 0 5 7 9 15
9 11 0 15 12 15 51 0 49 -1 50 -26 47 -27 -3 -33 -9 -53 -60 -8 -20 -18 -28
-36 -28 -14 0 -25 5 -25 10 0 6 7 10 15 10 21 0 19 33 -6 64 l-20 26 190 0
191 0 -27 -41z m333 19 c-18 -25 -21 -58 -6 -58 6 0 10 -4 10 -10 0 -21 -40
-9 -57 18 -23 36 -32 42 -70 42 -32 0 -33 -1 -33 -45 0 -48 11 -56 51 -35 17
10 19 7 19 -27 0 -29 -3 -34 -12 -25 -7 7 -23 12 -36 12 -21 0 -23 -3 -20 -47
3 -47 3 -48 38 -48 28 0 38 6 58 35 28 42 47 54 70 45 16 -6 16 -7 0 -16 -22
-12 -23 -31 -3 -69 l16 -30 -148 0 c-106 1 -143 4 -130 11 23 13 25 117 2 125
-8 4 -15 10 -15 15 0 5 7 9 15 9 19 0 22 106 3 113 -7 3 49 6 125 6 l138 1
-15 -22z m303 9 c45 -23 66 -63 66 -127 -1 -107 -47 -138 -210 -139 -66 0 -85
2 -72 10 13 8 17 23 17 65 0 47 -3 57 -20 61 -11 3 -20 9 -20 13 0 4 9 10 20
13 16 4 20 14 20 51 0 32 -5 48 -17 55 -27 16 186 14 216 -2z m608 -7 c41 -25
55 -52 56 -110 1 -62 -19 -107 -57 -128 -37 -19 -265 -31 -233 -12 23 15 25
118 2 126 -8 4 -15 10 -15 15 0 5 7 9 15 9 19 0 22 106 3 113 -7 3 34 6 92 6
87 1 110 -2 137 -19z m383 7 c17 -9 26 -22 28 -44 3 -25 -3 -35 -30 -54 -18
-12 -34 -24 -36 -25 -10 -7 60 -122 80 -131 20 -10 15 -12 -35 -12 l-58 -1
-25 58 c-31 68 -27 64 -48 56 -13 -5 -14 -9 -5 -20 9 -11 8 -15 -4 -20 -9 -3
-21 -3 -27 1 -6 4 -10 -5 -10 -24 0 -18 7 -34 18 -40 13 -8 -2 -10 -58 -10
-56 0 -71 2 -57 10 23 13 25 117 2 125 -8 4 -15 10 -15 15 0 5 7 9 15 9 19 0
22 106 3 113 -7 3 43 6 112 6 82 0 134 -4 150 -12z m553 6 c-10 -3 -13 -39
-13 -128 0 -108 2 -125 18 -134 13 -8 -2 -10 -58 -10 -56 0 -71 2 -57 10 23
13 25 117 2 125 -8 4 -15 10 -15 15 0 5 7 9 15 9 19 0 22 106 3 113 -7 3 16 5
52 5 36 0 59 -2 53 -5z m315 -13 c39 -24 52 -54 52 -125 0 -65 -31 -109 -88
-125 -50 -14 -223 -13 -199 1 23 13 25 117 2 125 -8 4 -15 10 -15 15 0 5 7 9
15 9 19 0 22 106 3 113 -7 3 34 6 92 6 88 1 110 -2 138 -19z m-1994 -344 c61
-25 92 -137 83 -296 -7 -114 -19 -159 -53 -200 -53 -63 -136 -28 -164 68 -17
59 -23 201 -12 274 14 89 38 137 76 154 38 16 31 16 70 0z m591 -28 c37 -44
49 -101 49 -233 0 -182 -37 -265 -118 -265 -72 0 -116 101 -116 262 0 150 28
240 81 262 42 17 74 9 104 -26z m-1055 26 c0 -3 -9 -19 -21 -35 l-20 -29 -840
0 -839 0 0 28 c0 16 3 32 7 35 8 9 1713 9 1713 1z m252 -34 c61 -66 43 -153
-54 -257 -62 -67 -78 -96 -78 -144 0 -28 2 -29 45 -29 33 0 50 6 65 22 l20 22
0 -47 0 -47 -99 0 c-94 0 -99 1 -104 23 -6 24 4 86 21 129 6 15 40 59 76 97
74 81 94 127 76 171 -14 34 -41 46 -70 30 -24 -13 -34 -49 -27 -96 9 -52 -32
-44 -53 11 -22 58 7 119 70 144 37 15 82 3 112 -29z m556 7 c12 -11 27 -38 32
-58 18 -68 -3 -119 -90 -215 -53 -58 -80 -109 -80 -151 0 -9 16 -13 49 -13 42
0 53 4 70 26 l21 27 0 -52 0 -52 -102 3 -103 3 -3 28 c-7 57 27 137 82 196 84
90 96 109 96 156 0 66 -52 96 -89 51 -13 -16 -17 -64 -7 -93 6 -19 4 -23 -12
-23 -44 0 -65 75 -38 132 32 67 120 85 174 35z m2042 -2 l0 -35 -839 0 -840 0
-20 29 c-12 16 -21 32 -21 35 0 3 387 6 860 6 l860 0 0 -35z m-1335 -99 c-6
-19 -4 -18 15 4 27 31 24 22 -19 -60 -18 -36 -44 -93 -57 -127 l-24 -63 638
-2 c350 -1 581 -5 512 -8 -76 -3 -115 -8 -100 -12 43 -12 111 -79 136 -132 58
-125 12 -267 -109 -336 l-52 -30 138 0 137 0 0 162 c0 109 3 159 10 152 6 -6
11 -64 12 -130 1 -70 6 -122 12 -126 7 -5 7 -8 -1 -8 -7 0 -13 -11 -13 -24 0
-13 6 -27 13 -29 6 -3 -142 -6 -330 -6 l-343 -1 0 -210 0 -210 290 0 290 0 0
64 c0 61 2 67 42 114 24 28 44 49 47 47 2 -2 -13 -24 -33 -48 l-36 -44 0 -167
c0 -104 -4 -166 -10 -166 -6 0 -10 38 -10 95 l0 95 -290 0 -290 0 0 -124 0
-123 83 -19 c106 -24 310 -24 416 0 41 9 76 14 78 12 9 -9 -147 -38 -232 -43
-172 -11 -356 30 -514 113 -89 47 -96 50 -86 34 3 -5 2 -10 -4 -10 -15 0 -23
18 -9 22 6 2 -4 15 -23 28 -19 13 -71 60 -116 104 -46 44 -83 74 -83 67 0 -11
-3 -11 -15 -1 -8 7 -15 17 -15 22 0 6 7 5 15 -2 8 -7 15 -8 15 -2 0 5 -7 15
-15 22 -12 10 -15 10 -15 0 0 -10 -3 -10 -15 0 -8 7 -15 17 -15 22 0 6 7 5 15
-2 22 -18 18 1 -6 30 l-20 25 6 -25 c6 -24 5 -24 -9 -6 -18 22 -21 40 -6 31
15 -9 13 -6 -25 71 -82 163 -110 297 -102 498 5 151 25 235 88 375 32 69 32
97 1 34 -139 -280 -141 -626 -7 -893 38 -75 41 -85 24 -74 -17 10 8 -33 53
-94 21 -29 43 -50 48 -47 6 3 8 0 7 -7 -2 -7 -2 -9 1 -4 2 4 33 -20 68 -55 35
-34 61 -66 59 -70 -3 -4 3 -13 13 -20 15 -13 16 -12 3 4 -16 21 1 23 19 2 10
-12 10 -15 -1 -15 -8 0 6 -14 31 -31 60 -40 104 -63 96 -50 -10 16 0 14 47
-10 170 -87 414 -120 622 -84 48 9 90 13 93 10 3 -3 -6 -5 -19 -6 -22 0 -22
-1 -4 -8 16 -6 8 -11 -35 -22 -37 -9 -110 -14 -225 -13 -141 0 -183 4 -247 22
-184 50 -347 144 -476 271 -256 254 -363 620 -281 969 20 89 68 217 99 268 23
36 54 43 45 10z m736 -83 c33 -22 56 -28 111 -31 104 -6 168 24 236 113 l23
30 -15 -31 c-19 -39 -78 -92 -125 -112 -61 -26 -147 -21 -214 12 -54 26 -117
90 -117 119 0 6 13 -9 30 -31 16 -23 49 -54 71 -69z m-1053 33 c-12 -33 -24
-54 -26 -48 -3 11 38 115 44 109 2 -1 -7 -29 -18 -61z m164 23 c22 -11 41 -19
42 -17 1 2 8 15 16 30 26 54 20 20 -9 -43 -87 -192 -118 -396 -90 -595 50
-359 276 -670 602 -824 199 -95 421 -123 672 -86 35 5 36 4 10 -4 -16 -5 -42
-12 -57 -15 -21 -4 -28 -11 -28 -28 0 -47 12 -67 39 -68 26 -1 25 -2 -4 -9
-16 -4 -89 -8 -162 -9 -201 -2 -374 38 -543 123 -478 241 -739 774 -634 1292
23 113 94 310 102 285 2 -6 22 -21 44 -32z m-3227 -23 c36 -9 71 -14 77 -10 5
4 13 1 17 -5 12 -19 144 -51 158 -39 17 14 17 12 -7 -65 -24 -79 -40 -97 -85
-97 -25 0 -46 10 -80 40 -45 39 -48 40 -124 40 -48 0 -82 -5 -90 -12 -11 -11
-13 -10 -7 5 3 10 6 25 6 33 0 11 18 14 81 14 60 0 80 3 76 13 -2 6 -14 11
-26 9 -18 -1 -21 2 -16 17 5 16 -1 20 -34 26 -22 4 -44 4 -50 1 -5 -3 -5 10 1
34 9 32 12 37 23 26 8 -7 43 -21 80 -30z m4975 -30 c0 -8 3 -22 7 -32 4 -11 3
-15 -5 -10 -15 9 -235 -52 -249 -71 -10 -13 -16 -12 -50 5 -44 24 -54 19 127
68 74 20 139 40 145 45 14 13 25 11 25 -5z m-4277 -60 c7 -8 29 -37 47 -66 23
-36 36 -48 43 -41 20 20 27 11 27 -34 l0 -45 -46 23 c-37 17 -42 23 -25 25 11
2 21 6 21 9 0 3 -16 32 -36 64 l-35 59 -195 0 c-123 0 -194 4 -194 10 0 6 70
10 189 10 150 0 193 -3 204 -14z m4306 -127 c11 -12 22 -35 26 -50 3 -16 7
-42 11 -58 4 -26 3 -28 -19 -24 -35 7 -140 -15 -153 -32 -8 -10 -14 -11 -21
-4 -14 14 -153 -9 -153 -25 -1 -27 -19 23 -25 66 -5 36 -3 55 9 73 19 28 72
41 113 27 24 -8 33 -5 61 19 43 38 120 41 151 8z m-5082 -36 c19 -9 53 -40 75
-70 40 -55 77 -78 108 -68 48 15 21 75 -33 75 -25 0 -28 2 -17 15 18 21 66 19
90 -5 24 -24 26 -77 3 -102 -11 -12 -30 -18 -61 -18 -41 0 -48 4 -111 69 -81
84 -106 95 -115 50 -4 -22 -1 -38 9 -49 14 -15 12 -16 -15 -12 -33 5 -34 9
-24 86 6 41 10 46 31 46 14 0 41 -7 60 -17z m1603 -28 c201 -37 419 -116 585
-214 l88 -52 109 37 c88 29 111 34 124 24 8 -7 49 -63 91 -124 53 -77 117
-152 212 -247 189 -188 251 -261 249 -290 -1 -13 24 -80 55 -147 31 -68 57
-131 57 -140 0 -10 -20 -30 -45 -45 -25 -16 -45 -34 -45 -40 0 -7 38 -124 85
-262 64 -187 90 -252 104 -259 32 -14 33 -36 4 -67 -21 -22 -56 -38 -140 -65
-73 -22 -113 -40 -113 -49 0 -26 20 -26 100 -1 l81 26 49 -25 49 -25 50 -157
c27 -87 61 -194 75 -238 14 -44 26 -88 26 -97 0 -19 -25 -25 -34 -9 -8 12
-348 -97 -363 -117 -7 -8 -15 -13 -18 -10 -3 3 -53 155 -111 339 -59 184 -110
338 -114 342 -4 5 -242 -67 -528 -160 -287 -92 -516 -170 -509 -174 6 -3 34
-9 60 -12 73 -10 194 -53 277 -100 85 -48 231 -187 268 -254 31 -57 15 -55
-22 3 -36 57 -137 160 -196 201 -67 45 -156 88 -240 115 -66 20 -94 23 -230
22 -140 0 -162 -3 -230 -26 -41 -14 -84 -29 -95 -32 -11 -4 1 4 26 18 56 30
142 53 234 61 49 5 185 43 460 132 673 215 1100 355 1109 363 12 11 -43 172
-58 167 -6 -2 -451 -144 -988 -317 -848 -272 -979 -311 -994 -299 -15 12 -12
15 22 29 22 9 469 153 994 320 525 167 957 305 959 307 6 4 -21 93 -30 99 -5
3 -468 -142 -1030 -321 -563 -179 -1029 -325 -1037 -323 -33 6 -19 24 31 40
995 315 2014 642 2020 648 23 21 -19 14 -125 -20 l-116 -37 -33 86 c-45 123
-126 291 -193 401 -32 52 -58 99 -59 104 -1 5 36 21 81 36 l84 28 60 -92 c33
-50 63 -92 67 -94 14 -5 61 17 61 29 0 7 -14 10 -39 7 -38 -3 -40 -2 -72 52
-74 126 -180 262 -299 381 -180 182 -327 283 -533 369 l-97 41 -222 -71 c-122
-39 -225 -73 -229 -76 -4 -2 -43 21 -86 52 -92 66 -132 88 -233 125 -80 29
-80 26 -10 52 12 4 11 6 -3 6 -9 1 -131 -35 -270 -80 -375 -119 -373 -119
-393 -134 -17 -13 -13 -13 29 -1 57 17 59 11 13 -58 -48 -73 -75 -130 -106
-220 -24 -74 -50 -110 -50 -71 0 31 71 200 111 264 22 35 38 65 36 68 -2 2
-36 -8 -74 -22 -84 -30 -83 -30 -83 -6 0 33 143 116 342 199 109 46 222 76
359 97 129 19 469 14 599 -10z m1456 -188 c0 -157 16 -255 64 -399 103 -308
343 -583 635 -727 188 -93 353 -130 585 -132 127 -1 136 -3 77 -10 -89 -10
-97 -19 -18 -19 54 0 62 -2 59 -17 -8 -43 -270 -36 -460 12 -500 127 -874 515
-989 1025 -25 111 -37 343 -19 365 10 12 16 13 27 3 11 -9 13 -23 8 -56 -4
-30 -3 -42 4 -37 6 3 11 28 11 55 0 40 7 80 14 80 0 0 1 -64 2 -143z m-1981
91 c100 -38 294 -164 278 -179 -13 -11 -964 -311 -970 -306 -7 8 35 132 69
202 16 33 47 87 69 120 l41 61 207 66 c216 69 219 69 306 36z m4010 -62 c36
-15 55 -57 55 -121 l0 -30 -77 -3 c-52 -2 -83 -8 -94 -18 -13 -11 -19 -12 -24
-3 -8 12 -121 8 -157 -6 -16 -6 -18 0 -18 57 0 50 4 69 18 81 28 25 76 31 110
14 26 -13 32 -13 45 0 13 13 80 41 100 43 4 0 23 -6 42 -14z m-5060 -48 c-7
-43 -12 -55 -18 -47 -8 9 6 89 15 89 6 0 7 -17 3 -42z m-60 -128 c57 0 85 4
88 13 4 9 8 9 16 -2 13 -20 135 -28 156 -11 13 11 15 7 15 -23 0 -66 -12 -98
-43 -117 -64 -39 -229 -37 -290 4 -30 21 -32 25 -34 91 -1 39 0 64 3 58 4 -9
32 -13 89 -13z m5133 -77 c44 -22 57 -42 48 -76 -11 -46 -57 -62 -176 -62 -85
0 -113 4 -145 20 -34 17 -40 25 -43 56 -4 43 11 57 76 76 61 17 193 9 240 -14z
m-5132 -153 c15 -6 49 -29 77 -51 58 -45 86 -55 116 -39 45 24 8 79 -45 66
-28 -7 -35 18 -8 28 54 21 104 -9 104 -61 0 -81 -80 -100 -166 -38 -100 71
-151 81 -142 27 3 -15 9 -35 13 -44 5 -14 2 -18 -13 -18 -25 0 -32 18 -32 86
l0 54 34 0 c19 0 47 -5 62 -10z m4376 -57 l30 -53 -30 -52 -29 -53 -61 -3 -60
-3 -32 56 -31 55 31 55 32 56 60 -3 61 -3 29 -52z m687 6 c28 -6 62 -19 76
-30 23 -18 25 -27 25 -91 0 -64 -1 -69 -17 -57 -10 9 -45 15 -97 16 -45 0 -89
5 -100 9 -10 4 -50 7 -88 8 l-70 1 6 48 c9 64 14 75 45 92 31 17 149 19 220 4z
m-4919 -204 c31 -9 60 -34 60 -52 0 -7 10 -14 23 -14 16 -1 18 -2 5 -6 -10 -2
-18 -14 -18 -25 0 -11 -15 -35 -33 -52 -19 -18 -37 -38 -40 -46 -4 -12 -6 -11
-6 3 -1 10 -9 17 -22 17 -11 0 -35 14 -52 32 -18 18 -41 31 -52 30 -18 -2 -18
-1 3 10 12 6 22 20 22 30 0 11 14 34 32 51 18 18 31 39 30 47 -2 13 0 12 10
-1 7 -9 24 -20 38 -24z m4851 -94 c15 -11 29 -34 32 -51 4 -19 13 -30 24 -31
16 -1 16 -2 -1 -6 -10 -3 -30 -18 -43 -33 -13 -16 -37 -31 -53 -35 -18 -4 -30
-13 -31 -23 -1 -14 -2 -13 -6 2 -3 10 -18 30 -34 43 -16 14 -29 35 -29 47 0
14 -9 27 -22 34 -20 9 -20 11 -5 11 11 1 32 15 47 31 15 17 38 30 50 30 14 0
24 8 28 23 l6 22 5 -22 c3 -12 18 -31 32 -42z m-2290 -185 c59 -114 135 -293
145 -343 6 -28 4 -30 -52 -45 -32 -9 -59 -16 -59 -15 -67 186 -142 352 -227
500 -29 51 -52 94 -51 96 1 3 26 12 55 21 l53 16 39 -60 c21 -32 65 -109 97
-170z m-258 117 c76 -126 210 -424 232 -514 6 -24 3 -28 -27 -38 -538 -173
-1323 -420 -1326 -416 -7 7 -192 597 -192 612 0 7 68 34 158 63 86 27 366 117
622 199 256 82 473 150 482 150 10 1 30 -21 51 -56z m1332 -23 c3 -5 2 -10 -4
-10 -5 0 -13 5 -16 10 -3 6 -2 10 4 10 5 0 13 -4 16 -10z m-3412 -149 c2 -48
-30 -71 -99 -71 -39 0 -56 -4 -60 -15 -10 -24 -69 -55 -105 -55 -49 0 -75 22
-94 81 -9 28 -15 52 -14 53 2 2 35 11 74 22 38 10 77 26 86 35 9 9 21 13 26 9
11 -11 135 28 148 46 8 11 13 5 23 -28 7 -24 14 -58 15 -77z m3481 104 c11 -8
15 -15 10 -15 -6 0 -19 7 -30 15 -10 8 -14 14 -9 14 6 0 19 -6 29 -14z m997
-135 l37 -40 91 -2 c50 -2 91 -5 91 -8 0 -3 -3 -15 -6 -28 -5 -18 -12 -22 -33
-18 -85 16 -133 18 -129 5 3 -8 13 -14 23 -14 21 0 34 -25 13 -26 -21 -1 44
-28 70 -29 25 0 25 0 12 -35 -7 -19 -14 -24 -23 -18 -25 20 -138 54 -157 48
-13 -4 -20 -2 -20 7 0 16 -134 63 -150 53 -18 -11 38 129 57 143 31 23 84 8
124 -38z m-4402 -172 c1 -40 -40 -81 -118 -117 -85 -39 -160 -50 -194 -28 -21
14 -78 125 -57 112 15 -9 155 51 158 69 3 12 10 15 24 10 25 -7 138 35 146 55
7 18 41 -64 41 -101z m4242 -7 c22 -17 47 -27 55 -24 8 3 14 0 14 -7 0 -9 -13
-11 -44 -8 -89 10 -101 -26 -21 -65 53 -26 73 -23 61 8 -7 18 -4 18 29 3 25
-11 34 -28 15 -28 -5 0 -10 -6 -10 -13 0 -15 81 -57 110 -57 33 0 25 41 -15
73 -19 15 -35 34 -35 42 0 20 6 19 29 -4 10 -10 37 -22 60 -26 23 -4 41 -10
41 -15 0 -14 -69 -155 -70 -142 0 16 -120 72 -155 72 -14 0 -25 6 -25 13 0 16
-125 71 -141 61 -6 -4 -10 -3 -8 3 21 52 63 143 66 143 2 0 21 -13 44 -29z
m-3662 -302 c44 -151 84 -287 90 -302 6 -16 11 -34 11 -41 0 -13 -98 -49 -112
-40 -18 11 -6 24 33 35 39 12 41 14 35 47 -3 19 -7 37 -10 39 -3 3 -33 -4 -67
-16 -69 -23 -79 -25 -79 -13 0 4 31 18 69 30 l69 23 -9 32 c-46 153 -119 412
-119 423 0 25 -18 23 -121 -12 -57 -19 -112 -33 -122 -30 -9 2 -15 1 -12 -3 2
-4 -11 -13 -30 -18 -23 -7 -37 -8 -41 -1 -3 5 -4 12 -1 15 7 6 331 112 334
109 2 -2 39 -126 82 -277z m2821 189 c0 -48 -1 -50 -18 -35 -16 15 -23 6 -110
-148 l-93 -164 -30 -298 c-30 -300 -37 -349 -44 -341 -2 2 11 148 29 324 l34
320 86 152 c106 186 103 180 74 184 -20 3 -18 6 22 30 25 14 46 26 48 27 1 1
2 -22 2 -51z m-3537 -93 c19 -41 20 -45 9 -45 -7 0 -42 63 -42 75 0 17 19 -1
33 -30z m4341 0 c13 -14 27 -38 31 -53 22 -94 26 -102 46 -102 15 0 19 -5 15
-15 -6 -18 51 -58 72 -50 9 3 8 -3 -3 -25 l-15 -29 -74 45 c-45 27 -80 42 -90
38 -10 -4 -16 -1 -16 9 0 20 -125 91 -141 81 -16 -10 31 73 58 102 31 33 86
33 117 -1z m-4125 -58 l44 -13 -134 -78 c-74 -43 -139 -84 -145 -92 -8 -10
-14 -7 -28 17 -17 28 -16 29 2 29 32 0 217 115 216 134 -1 9 -1 16 0 16 0 0
21 -6 45 -13z m3990 -113 c28 -20 51 -72 51 -116 0 -37 13 -63 32 -63 7 0 12
-10 11 -22 -2 -16 8 -26 36 -40 l39 -20 -23 -29 c-17 -20 -24 -24 -25 -13 0
19 -118 102 -136 95 -8 -3 -14 1 -14 9 0 17 -102 95 -125 95 -21 0 -6 27 44
80 42 44 72 50 110 24z m-3972 -80 c17 4 40 0 57 -9 16 -9 38 -13 50 -10 18 5
18 4 4 -4 -12 -8 -15 -20 -11 -51 4 -27 0 -47 -11 -64 -10 -15 -12 -27 -6 -31
6 -3 10 -11 10 -17 0 -6 -6 -5 -16 3 -9 7 -32 12 -52 11 -21 -2 -46 3 -57 12
-15 11 -25 12 -40 3 -18 -9 -18 -8 -7 6 8 10 11 27 8 44 -4 17 0 40 9 57 9 17
13 38 9 50 -6 18 -5 19 9 8 10 -8 27 -11 44 -8z m3832 -115 c62 -28 128 -84
162 -138 36 -56 38 -95 5 -116 -44 -29 -128 8 -215 96 -72 72 -91 134 -49 163
29 21 44 20 97 -5z m-3489 -97 c-12 -4 -114 -152 -104 -152 3 0 41 24 84 54
l78 54 28 -29 c19 -20 23 -29 13 -29 -8 0 -70 -55 -137 -123 l-122 -124 -22
24 c-15 17 -18 23 -7 23 8 1 55 40 104 87 50 48 83 83 75 78 -8 -5 -61 -39
-117 -77 -56 -37 -104 -64 -107 -60 -2 4 27 54 65 110 39 56 66 102 62 102
-17 0 -165 -158 -159 -169 13 -20 0 -11 -30 21 -16 17 -23 28 -17 24 17 -9
123 91 123 115 0 11 7 19 17 19 21 0 113 89 113 109 0 10 13 2 35 -19 20 -19
31 -36 25 -38z m3447 -154 l110 -108 -24 -22 c-16 -15 -23 -17 -23 -8 0 15
-99 120 -112 120 -15 0 -8 -29 8 -38 10 -5 14 -14 9 -21 -5 -9 -12 -8 -25 4
-11 10 -24 15 -30 13 -14 -4 76 -107 102 -117 17 -6 16 -9 -12 -36 -26 -25
-30 -26 -30 -10 0 24 -98 125 -122 125 -11 0 -15 5 -12 14 7 18 -82 116 -104
116 -12 0 -10 6 8 25 26 28 40 32 40 12 0 -21 84 -97 107 -97 14 0 22 8 25 24
4 19 -5 35 -41 70 -26 25 -52 46 -59 46 -7 0 -1 11 15 24 l28 24 16 -27 c9
-14 66 -74 126 -133z m-1477 20 c46 -126 137 -444 130 -452 -12 -12 -14 -6
-91 242 -38 121 -68 202 -75 202 -18 0 -397 -121 -407 -129 -4 -4 18 -85 48
-181 30 -95 55 -175 55 -177 0 -2 -6 -3 -13 -3 -15 0 -134 366 -123 378 6 6
437 148 458 151 3 1 11 -14 18 -31z m-1774 -46 c-20 -4 -226 -240 -226 -259 0
-20 -14 -16 -39 11 -17 18 -19 25 -9 28 23 5 108 107 108 128 0 12 5 17 13 15
12 -5 107 98 107 116 0 5 14 -1 31 -13 23 -17 27 -24 15 -26z m3003 -184 c9
-26 18 -38 32 -38 19 0 26 -15 11 -24 -21 -13 -52 29 -77 104 -27 82 -49 115
-67 104 -45 -28 96 -244 159 -244 49 0 35 72 -19 95 -26 11 -29 15 -16 20 31
12 62 0 85 -34 43 -64 20 -121 -48 -121 -36 0 -47 7 -98 58 -90 90 -137 208
-96 242 8 7 30 20 48 29 l32 16 21 -85 c11 -47 26 -102 33 -122z m-1268 156
c12 -15 128 -357 129 -379 0 -31 -25 31 -75 185 -31 96 -60 179 -65 184 -12
12 -318 -83 -324 -100 -3 -7 15 -76 40 -154 25 -78 43 -147 41 -153 -6 -18
-99 280 -95 306 3 19 25 29 158 74 85 28 160 52 166 52 6 1 18 -6 25 -15z
m-1596 -69 l30 -32 -80 -43 c-109 -59 -135 -78 -135 -101 0 -10 -7 -19 -15
-19 -8 0 -15 6 -15 13 0 19 33 51 98 96 71 48 89 68 75 82 -18 18 -52 0 -108
-57 -85 -87 -114 -166 -67 -182 20 -6 75 56 69 78 -7 26 9 26 23 -1 23 -42
-34 -119 -87 -119 -28 0 -73 41 -73 68 0 67 127 233 191 250 43 11 57 6 94
-33z m135 -83 c46 -31 56 -43 58 -70 4 -43 -18 -77 -66 -101 -33 -17 -40 -27
-61 -93 -14 -40 -24 -81 -23 -90 1 -22 -7 -22 -32 -3 -19 14 -18 16 7 86 15
40 25 74 23 76 -8 9 -37 -11 -32 -23 7 -19 -11 -27 -21 -9 -7 12 -14 7 -32
-25 -12 -22 -19 -45 -16 -51 4 -6 -7 -3 -25 6 -28 15 -30 18 -18 33 37 44 78
125 73 143 -5 13 -2 19 9 19 18 0 86 99 86 125 0 22 8 19 70 -23z m2490 -62
c19 0 46 -7 58 -16 13 -9 29 -13 37 -10 8 3 15 1 15 -4 0 -6 -4 -10 -10 -10
-5 0 -10 -20 -10 -44 0 -27 -6 -48 -16 -57 -10 -8 -13 -21 -9 -38 4 -22 3 -24
-7 -10 -8 9 -28 15 -50 15 -22 0 -45 7 -57 18 -13 12 -27 16 -43 11 -18 -5
-19 -4 -8 4 9 6 15 27 16 50 0 23 8 48 17 59 11 12 15 26 11 38 -6 16 -5 17 7
7 7 -7 29 -13 49 -13z m-2265 -60 c43 -48 -13 -231 -92 -301 -35 -30 -80 -38
-101 -17 -7 7 -12 37 -12 68 0 84 64 210 128 252 35 23 55 23 77 -2z m2031
-45 c40 -43 93 -152 100 -209 5 -36 3 -47 -15 -65 -28 -28 -53 -27 -90 5 -39
33 -102 159 -108 218 -10 87 52 115 113 51z m-1828 -52 c32 -43 -3 -198 -62
-276 -38 -50 -73 -57 -141 -31 -36 13 -42 19 -31 28 20 16 60 132 53 156 -3
13 0 20 8 20 16 0 70 135 60 150 -10 16 99 -29 113 -47z m1526 -45 c63 -63
107 -240 73 -292 -19 -29 -140 -75 -122 -46 9 14 -36 151 -52 157 -8 3 -11 13
-8 24 8 23 -23 131 -42 145 -11 10 -6 15 29 27 65 23 86 21 122 -15z m-1334
-7 c74 -27 80 -95 14 -157 -33 -32 -34 -34 -34 -116 0 -50 5 -89 12 -96 8 -8
4 -9 -18 -3 -29 7 -29 8 -32 90 -2 68 -5 81 -16 72 -8 -7 -12 -21 -9 -31 6
-22 -7 -26 -24 -9 -9 9 -14 -1 -19 -40 -6 -47 -9 -52 -28 -47 -12 3 -28 6 -36
6 -11 0 -12 2 -2 8 17 11 53 142 46 166 -3 10 -1 22 5 25 6 4 20 37 30 73 14
50 16 69 8 78 -15 15 36 6 103 -19z m243 -81 c35 -66 6 -246 -48 -304 -29 -31
-65 -33 -91 -5 -43 48 -23 244 32 316 21 28 32 34 57 31 25 -2 36 -11 50 -38z
m147 2 c-16 -29 -39 -325 -26 -341 9 -12 7 -13 -14 -8 -14 4 -30 7 -37 7 -8 0
-9 10 -1 37 5 20 8 65 6 100 -2 35 -1 63 3 63 12 0 22 139 11 153 -8 10 -2 12
28 9 33 -3 37 -7 30 -20z m164 8 c40 -15 59 -64 60 -155 1 -98 -8 -145 -35
-179 -19 -24 -27 -26 -87 -25 -37 0 -61 3 -54 6 17 7 17 154 0 171 -9 9 -10
15 -2 20 16 10 27 127 14 152 -10 19 -8 20 34 20 25 0 56 -4 70 -10z m233 4
l30 -6 -25 -68 -24 -69 41 -39 c36 -35 41 -44 41 -85 0 -34 -6 -53 -24 -74
-22 -25 -30 -28 -82 -26 -31 2 -59 5 -61 7 -3 2 1 23 8 46 10 31 10 46 1 60
-13 22 -4 34 15 19 7 -6 13 -24 13 -39 0 -15 8 -38 19 -51 18 -22 19 -22 45
-6 33 22 35 71 4 104 -29 31 -38 29 -38 -7 0 -22 4 -28 15 -24 10 4 15 0 15
-11 0 -10 -6 -15 -17 -13 -13 2 -19 15 -21 48 -2 30 -11 53 -26 70 -52 56 -60
107 -21 145 25 26 42 29 92 19z m267 -60 c15 -3 37 -20 49 -36 12 -15 27 -26
34 -24 7 3 13 1 13 -4 0 -6 -7 -10 -15 -10 -9 0 -15 -9 -15 -21 0 -12 -16 -37
-36 -55 -19 -19 -32 -38 -29 -44 3 -5 1 -10 -4 -10 -6 0 -11 7 -11 15 0 9 -9
15 -21 15 -11 0 -35 14 -52 32 -18 18 -39 31 -47 30 -13 -2 -13 -1 1 10 9 7
19 25 22 40 4 15 20 37 36 49 18 13 27 28 24 38 -4 14 -3 14 9 -1 8 -9 27 -20
42 -24z m476 16 c0 -5 -2 -10 -4 -10 -2 0 -20 -7 -40 -15 -21 -9 -36 -11 -36
-5 0 5 15 16 33 24 40 18 47 19 47 6z"/>
<path d="M2850 5679 l0 -92 30 38 c34 43 43 69 38 111 -2 25 -8 29 -35 32
l-33 3 0 -92z"/>
<path d="M2638 5624 c-2 -32 1 -48 10 -51 20 -8 23 0 16 50 -9 60 -21 60 -26
1z"/>
<path d="M3895 5648 c-18 -45 -38 -184 -30 -215 9 -38 47 -27 62 18 20 63 34
188 23 210 -16 29 -39 23 -55 -13z"/>
<path d="M4335 5596 c-19 -14 -18 -67 2 -73 11 -4 43 45 43 65 0 16 -27 21
-45 8z"/>
<path d="M3037 5264 c-9 -9 -10 -906 -1 -928 11 -28 52 -19 74 16 34 57 45
157 45 438 0 288 -11 386 -49 442 -21 32 -54 47 -69 32z"/>
<path d="M2647 5253 c-9 -8 -8 -824 1 -883 6 -39 10 -45 34 -48 23 -3 30 3 47
36 34 66 44 190 38 475 -5 269 -15 346 -51 402 -16 24 -54 34 -69 18z"/>
<path d="M2261 4823 c-7 -87 -14 -165 -17 -173 -2 -8 7 -28 19 -44 l23 -28 16
24 c15 22 15 39 0 201 -9 97 -19 177 -22 177 -4 0 -12 -71 -19 -157z"/>
<path d="M1841 5151 c-20 -20 -21 -32 -20 -203 1 -101 4 -214 8 -252 l6 -70
43 120 c54 151 66 211 59 297 -7 103 -51 153 -96 108z"/>
<path d="M1876 4650 c-18 -46 -20 -70 -6 -70 6 0 15 -11 22 -25 8 -19 8 -28
-2 -40 -16 -19 -25 -19 -44 1 -15 14 -16 8 -16 -70 0 -46 4 -97 10 -111 9 -23
15 -26 47 -23 33 3 41 8 57 41 28 58 25 196 -6 272 -13 32 -28 60 -34 62 -6 2
-19 -14 -28 -37z"/>
<path d="M1305 5049 c-52 -15 -55 -26 -54 -228 1 -151 12 -326 18 -274 0 7 27
65 58 130 52 107 57 123 61 199 5 95 -2 147 -24 169 -17 17 -17 17 -59 4z"/>
<path d="M751 4704 c0 -11 3 -14 6 -6 3 7 2 16 -1 19 -3 4 -6 -2 -5 -13z"/>
<path d="M5019 4869 c-18 -35 -5 -113 26 -161 l28 -43 18 50 c27 77 25 129 -7
154 -34 27 -50 26 -65 0z"/>
<path d="M4149 4084 c-18 -22 -23 -133 -7 -164 19 -36 80 -40 102 -8 21 30 22
135 0 166 -18 27 -75 30 -95 6z"/>
<path d="M5022 4098 c-20 -20 -14 -37 17 -53 28 -14 31 -14 50 11 16 21 18 30
10 40 -14 17 -61 18 -77 2z"/>
<path d="M774 4096 c-3 -7 -4 -38 -2 -69 l3 -55 55 32 c42 25 56 39 58 59 3
21 -2 29 -23 37 -37 14 -85 12 -91 -4z"/>
<path d="M1126 4094 c-3 -9 -6 -44 -6 -79 l0 -64 63 43 c64 43 80 73 57 102
-18 20 -106 19 -114 -2z"/>
<path d="M2834 4097 c-2 -7 -3 -58 -2 -113 3 -109 10 -118 67 -94 36 14 51 48
51 111 0 42 -5 55 -29 80 -31 31 -78 39 -87 16z"/>
<path d="M3432 3998 l3 -113 26 -3 c41 -5 78 34 85 88 11 82 -29 140 -97 140
-19 0 -19 -6 -17 -112z"/>
<path d="M3787 4103 c-4 -3 -7 -37 -7 -74 l0 -68 53 30 c77 45 93 72 61 103
-15 16 -94 23 -107 9z"/>
<path d="M4682 3999 c3 -114 3 -114 29 -117 61 -7 102 73 79 157 -12 47 -27
60 -74 68 l-37 6 3 -114z"/>
<path d="M2758 3698 c-9 -17 -13 -71 -13 -193 0 -185 8 -219 48 -213 35 5 46
57 46 213 0 156 -11 208 -46 213 -14 2 -26 -5 -35 -20z"/>
<path d="M3314 3684 c-12 -28 -16 -73 -16 -173 0 -153 14 -214 48 -219 35 -5
47 39 51 193 5 163 -8 228 -45 233 -18 3 -26 -4 -38 -34z"/>
<path d="M3822 3584 c-18 -35 -32 -68 -32 -72 1 -4 17 24 36 62 19 37 34 70
32 72 -2 2 -18 -26 -36 -62z"/>
<path d="M3771 3469 c-6 -18 -11 -37 -10 -43 0 -6 7 7 15 28 8 22 12 41 10 43
-2 2 -9 -10 -15 -28z"/>
<path d="M3745 3380 c-4 -17 -5 -34 -2 -36 2 -3 7 10 11 27 8 42 0 50 -9 9z"/>
<path d="M3790 3373 c0 -5 -4 -25 -9 -45 l-9 -38 334 0 c326 0 334 0 334 20 0
19 -8 20 -187 22 l-188 3 3 23 c3 22 3 22 -137 22 -78 0 -141 -3 -141 -7z"/>
<path d="M4087 3373 c-20 -19 8 -23 168 -23 149 0 175 2 175 15 0 13 -25 15
-168 15 -93 0 -172 -3 -175 -7z"/>
<path d="M4450 3127 l0 -257 113 0 112 0 -40 19 c-95 43 -165 168 -151 269 9
68 55 142 110 180 27 17 56 32 65 32 9 0 -3 -9 -26 -21 -123 -61 -173 -213
-110 -336 95 -186 364 -175 447 19 18 42 21 65 18 113 -6 70 -24 109 -70 156
-59 58 -95 68 -291 75 l-177 7 0 -256z m397 180 c59 -31 103 -111 103 -187 0
-54 -45 -137 -92 -167 -46 -31 -127 -41 -182 -23 -141 46 -186 226 -84 336 66
72 165 88 255 41z"/>
<path d="M4665 3301 c-22 -10 -50 -30 -63 -43 l-23 -25 41 -27 c38 -25 40 -28
40 -80 0 -51 -1 -54 -41 -80 l-41 -28 24 -25 c27 -30 61 -48 106 -58 l32 -7 0
50 c0 36 -5 54 -20 67 -16 14 -20 31 -20 80 0 49 4 66 20 80 15 13 20 31 20
67 0 56 -10 59 -75 29z"/>
<path d="M4750 3268 c0 -42 5 -59 20 -73 15 -14 20 -31 20 -70 0 -39 -5 -56
-20 -70 -15 -14 -20 -31 -20 -72 0 -62 4 -64 78 -27 44 22 83 59 70 68 -2 1
-18 13 -35 25 -31 21 -33 26 -33 79 0 54 2 58 36 80 19 13 34 28 31 35 -6 20
-79 66 -114 73 l-33 7 0 -55z"/>
<path d="M4559 3193 c-12 -32 -7 -139 7 -153 6 -6 23 -1 47 15 33 23 37 30 37
70 0 38 -4 47 -33 69 -42 32 -45 32 -58 -1z"/>
<path d="M4873 3199 c-30 -19 -33 -25 -33 -72 0 -49 3 -54 36 -75 20 -13 37
-22 38 -20 8 9 26 74 26 92 0 29 -20 96 -28 96 -4 0 -22 -10 -39 -21z"/>
<path d="M4727 3192 c-22 -24 -23 -114 -2 -132 30 -25 45 -4 45 63 0 74 -16
99 -43 69z"/>
<path d="M3732 3310 c0 -14 2 -19 5 -12 2 6 2 18 0 25 -3 6 -5 1 -5 -13z"/>
<path d="M3765 3234 c-3 -25 -4 -48 -2 -50 3 -3 156 -2 341 2 317 7 336 8 336
26 0 17 -12 18 -200 18 l-200 0 0 25 0 25 -134 0 -134 0 -7 -46z"/>
<path d="M3722 3240 c0 -19 2 -27 5 -17 2 9 2 25 0 35 -3 9 -5 1 -5 -18z"/>
<path d="M4050 3255 c0 -13 28 -15 190 -15 162 0 190 2 190 15 0 13 -28 15
-190 15 -162 0 -190 -2 -190 -15z"/>
<path d="M3760 3125 l0 -45 341 0 340 0 -3 23 c-3 22 -4 22 -205 25 -195 2
-203 3 -203 22 0 19 -7 20 -135 20 l-135 0 0 -45z"/>
<path d="M4040 3155 c0 -13 28 -15 195 -15 167 0 195 2 195 15 0 13 -28 15
-195 15 -167 0 -195 -2 -195 -15z"/>
<path d="M3760 3056 c0 -7 3 -28 6 -45 l7 -31 333 0 c327 0 334 0 334 20 0 19
-7 20 -200 20 l-200 0 -6 25 -6 25 -134 0 c-107 0 -134 -3 -134 -14z"/>
<path d="M4046 3055 c5 -13 36 -15 195 -15 161 0 189 2 189 15 0 13 -28 15
-195 15 -169 0 -194 -2 -189 -15z"/>
<path d="M3723 3015 c0 -22 2 -30 4 -17 2 12 2 30 0 40 -3 9 -5 -1 -4 -23z"/>
<path d="M3732 2940 c0 -14 2 -19 5 -12 2 6 2 18 0 25 -3 6 -5 1 -5 -13z"/>
<path d="M3781 2923 c5 -21 9 -41 9 -46 0 -4 145 -6 323 -5 l322 3 3 23 3 22
-190 0 c-181 0 -190 1 -196 20 -6 19 -15 20 -145 20 l-138 0 9 -37z"/>
<path d="M4062 2948 c4 -10 52 -14 186 -16 158 -2 182 0 182 13 0 13 -26 15
-186 15 -144 0 -185 -3 -182 -12z"/>
<path d="M3741 2894 c0 -11 3 -14 6 -6 3 7 2 16 -1 19 -3 4 -6 -2 -5 -13z"/>
<path d="M3751 2854 c0 -11 3 -14 6 -6 3 7 2 16 -1 19 -3 4 -6 -2 -5 -13z"/>
<path d="M3800 2847 c0 -22 47 -135 85 -203 79 -140 189 -256 332 -348 61 -39
198 -106 217 -106 4 0 6 151 6 335 l0 335 -320 0 c-257 0 -320 -3 -320 -13z"/>
<path d="M3780 2765 c0 -5 5 -17 10 -25 5 -8 10 -10 10 -5 0 6 -5 17 -10 25
-5 8 -10 11 -10 5z"/>
<path d="M3800 2716 c0 -11 40 -86 45 -86 3 0 -4 19 -16 43 -23 45 -29 54 -29
43z"/>
<path d="M4022 2395 c32 -33 59 -57 61 -55 2 3 -23 29 -57 59 l-61 55 57 -59z"/>
<path d="M4330 2185 c14 -8 30 -14 35 -14 6 0 -1 6 -15 14 -14 8 -29 14 -35
14 -5 0 1 -6 15 -14z"/>
<path d="M4405 2155 c17 -8 37 -14 45 -14 8 0 -1 7 -20 14 -46 18 -64 17 -25
0z"/>
<path d="M4478 2133 c7 -3 16 -2 19 1 4 3 -2 6 -13 5 -11 0 -14 -3 -6 -6z"/>
<path d="M4518 2123 c6 -2 18 -2 25 0 6 3 1 5 -13 5 -14 0 -19 -2 -12 -5z"/>
<path d="M4948 2123 c6 -2 18 -2 25 0 6 3 1 5 -13 5 -14 0 -19 -2 -12 -5z"/>
<path d="M4573 2113 c9 -2 23 -2 30 0 6 3 -1 5 -18 5 -16 0 -22 -2 -12 -5z"/>
<path d="M4893 2113 c9 -2 23 -2 30 0 6 3 -1 5 -18 5 -16 0 -22 -2 -12 -5z"/>
<path d="M4688 2103 c34 -2 88 -2 120 0 31 2 3 3 -63 3 -66 0 -92 -1 -57 -3z"/>
<path d="M3659 3589 c-12 -23 -49 -128 -49 -140 0 -8 55 -29 76 -29 7 0 20 24
30 53 9 28 23 64 30 78 12 25 11 27 -22 42 -45 22 -51 21 -65 -4z"/>
<path d="M3592 3373 c-28 -129 -27 -133 42 -133 l31 0 13 77 c6 42 9 80 4 84
-4 4 -23 10 -43 14 l-37 7 -10 -49z"/>
<path d="M3568 3188 c-5 -115 8 -255 33 -349 l9 -37 43 13 c24 7 41 18 41 26
-1 8 -9 54 -18 103 -9 49 -16 133 -16 187 l0 99 -45 0 -45 0 -2 -42z"/>
<path d="M3643 2798 l-32 -11 24 -64 c59 -156 147 -295 263 -416 61 -63 161
-147 175 -147 3 0 17 16 31 36 l24 36 -73 59 c-134 106 -261 282 -323 446 -28
77 -32 79 -89 61z"/>
<path d="M4112 2184 c-13 -20 -22 -37 -20 -39 2 -2 35 -22 73 -44 84 -49 225
-106 235 -94 5 4 13 24 18 45 l10 36 -72 26 c-40 15 -103 45 -140 66 -38 22
-71 40 -75 40 -3 0 -16 -16 -29 -36z"/>
<path d="M4430 2039 c-6 -23 -9 -43 -7 -45 9 -9 145 -34 220 -40 l77 -7 0 46
0 46 -57 6 c-32 3 -92 13 -134 21 -42 7 -79 14 -82 14 -3 0 -11 -18 -17 -41z"/>
<path d="M4778 2043 c-38 -4 -38 -5 -38 -49 l0 -45 63 3 62 3 0 45 c0 50 -5
52 -87 43z"/>
<path d="M547 3491 c61 -81 138 -105 157 -48 6 17 6 30 0 36 -5 5 -50 20 -100
34 l-92 24 35 -46z"/>
<path d="M5379 3330 c-24 -20 -24 -20 -4 -35 18 -15 20 -15 23 -1 2 9 8 16 14
16 6 0 8 -9 5 -21 -5 -18 -2 -20 26 -13 42 9 47 12 47 33 0 43 -70 56 -111 21z"/>
<path d="M5206 3291 c-9 -10 -14 -25 -10 -35 7 -19 42 -20 133 -2 l65 12 -51
22 c-64 27 -114 28 -137 3z"/>
<path d="M1570 3271 c-45 -15 -51 -20 -35 -26 71 -27 156 -71 221 -116 l75
-52 132 41 c73 23 164 52 202 65 l70 24 -55 16 c-92 26 -199 46 -315 57 -153
14 -231 12 -295 -9z"/>
<path d="M1239 3235 c-59 -16 -191 -66 -187 -71 2 -1 64 17 138 41 125 41 156
60 49 30z"/>
<path d="M2788 3026 l-88 -31 68 -52 c145 -111 344 -337 443 -504 23 -38 44
-69 48 -69 16 0 93 90 88 102 -8 18 -457 583 -465 584 -4 1 -46 -13 -94 -30z"/>
<path d="M3258 2615 c101 -132 106 -138 127 -133 16 3 1 24 -84 109 l-104 104
61 -80z"/>
<path d="M3075 2443 c-58 -17 -67 -24 -57 -40 12 -19 143 22 135 42 -6 18 -14
18 -78 -2z"/>
<path d="M3330 2415 c-24 -25 -40 -45 -34 -45 5 0 30 20 54 45 24 25 40 45 34
45 -5 0 -30 -20 -54 -45z"/>
<path d="M3384 2429 l-29 -31 37 22 c21 12 35 26 32 31 -7 12 -7 13 -40 -22z"/>
<path d="M3065 2380 c-3 -6 1 -7 9 -4 18 7 21 14 7 14 -6 0 -13 -4 -16 -10z"/>
<path d="M3130 2380 c0 -5 5 -10 11 -10 5 0 7 5 4 10 -3 6 -8 10 -11 10 -2 0
-4 -4 -4 -10z"/>
<path d="M3105 2370 c3 -5 8 -10 11 -10 2 0 4 5 4 10 0 6 -5 10 -11 10 -5 0
-7 -4 -4 -10z"/>
<path d="M3180 2350 c0 -5 5 -10 11 -10 5 0 7 5 4 10 -3 6 -8 10 -11 10 -2 0
-4 -4 -4 -10z"/>
<path d="M3125 2330 c3 -5 8 -10 11 -10 2 0 4 5 4 10 0 6 -5 10 -11 10 -5 0
-7 -4 -4 -10z"/>
<path d="M3383 2330 c-34 -14 -28 -21 7 -9 17 6 30 13 30 15 0 6 -12 4 -37 -6z"/>
<path d="M3415 2311 c-22 -11 -35 -19 -30 -19 14 -1 93 36 80 37 -5 0 -28 -8
-50 -18z"/>
<path d="M3170 2311 c0 -5 5 -13 10 -16 6 -3 10 -2 10 4 0 5 -4 13 -10 16 -5
3 -10 2 -10 -4z"/>
<path d="M3430 2285 c-25 -13 -41 -24 -37 -25 11 0 87 39 87 45 0 7 0 7 -50
-20z"/>
<path d="M3220 2280 c0 -5 5 -10 11 -10 5 0 7 5 4 10 -3 6 -8 10 -11 10 -2 0
-4 -4 -4 -10z"/>
<path d="M3300 2285 c0 -3 22 -49 48 -103 27 -53 62 -130 77 -169 16 -40 32
-73 37 -73 14 0 10 13 -33 116 -49 120 -108 234 -120 234 -5 0 -9 -2 -9 -5z"/>
<path d="M3438 2259 c-21 -11 -38 -21 -38 -24 0 -5 78 29 87 38 12 13 -12 6
-49 -14z"/>
<path d="M3165 2260 c3 -5 8 -10 11 -10 2 0 4 5 4 10 0 6 -5 10 -11 10 -5 0
-7 -4 -4 -10z"/>
<path d="M3240 2240 c0 -5 5 -10 11 -10 5 0 7 5 4 10 -3 6 -8 10 -11 10 -2 0
-4 -4 -4 -10z"/>
<path d="M3397 2195 c15 -30 29 -53 31 -51 4 5 -46 106 -53 106 -3 0 7 -25 22
-55z"/>
<path d="M3450 2230 c-19 -11 -30 -19 -25 -19 6 0 26 8 45 19 19 11 31 19 25
19 -5 0 -26 -8 -45 -19z"/>
<path d="M3215 2230 c3 -5 8 -10 11 -10 2 0 4 5 4 10 0 6 -5 10 -11 10 -5 0
-7 -4 -4 -10z"/>
<path d="M3468 2209 c-21 -11 -38 -22 -38 -24 0 -3 18 4 40 15 22 11 40 23 40
25 0 7 0 7 -42 -16z"/>
<path d="M3220 2197 c-75 -23 -77 -24 -64 -37 14 -14 146 31 136 46 -5 7 -28
4 -72 -9z"/>
<path d="M3260 2140 c0 -5 5 -10 11 -10 5 0 7 5 4 10 -3 6 -8 10 -11 10 -2 0
-4 -4 -4 -10z"/>
<path d="M3230 2130 c0 -5 5 -10 11 -10 5 0 7 5 4 10 -3 6 -8 10 -11 10 -2 0
-4 -4 -4 -10z"/>
<path d="M3205 2120 c3 -5 8 -10 11 -10 2 0 4 5 4 10 0 6 -5 10 -11 10 -5 0
-7 -4 -4 -10z"/>
<path d="M3305 2110 c3 -5 8 -10 11 -10 2 0 4 5 4 10 0 6 -5 10 -11 10 -5 0
-7 -4 -4 -10z"/>
<path d="M3220 2090 c0 -5 5 -10 11 -10 5 0 7 5 4 10 -3 6 -8 10 -11 10 -2 0
-4 -4 -4 -10z"/>
<path d="M3290 2071 c0 -5 5 -13 10 -16 6 -3 10 -2 10 4 0 5 -4 13 -10 16 -5
3 -10 2 -10 -4z"/>
<path d="M3265 2060 c3 -5 8 -10 11 -10 2 0 4 5 4 10 0 6 -5 10 -11 10 -5 0
-7 -4 -4 -10z"/>
<path d="M3310 2030 c0 -5 5 -10 11 -10 5 0 7 5 4 10 -3 6 -8 10 -11 10 -2 0
-4 -4 -4 -10z"/>
<path d="M3255 2010 c3 -5 8 -10 11 -10 2 0 4 5 4 10 0 6 -5 10 -11 10 -5 0
-7 -4 -4 -10z"/>
<path d="M3355 2000 c3 -5 8 -10 11 -10 2 0 4 5 4 10 0 6 -5 10 -11 10 -5 0
-7 -4 -4 -10z"/>
<path d="M3300 1981 c0 -5 7 -12 16 -15 14 -5 15 -4 4 9 -14 17 -20 19 -20 6z"/>
<path d="M3275 1970 c3 -5 8 -10 11 -10 2 0 4 5 4 10 0 6 -5 10 -11 10 -5 0
-7 -4 -4 -10z"/>
<path d="M3323 1947 c-62 -20 -71 -29 -55 -54 6 -10 24 -7 75 9 56 18 67 26
65 42 -4 27 -14 27 -85 3z"/>
<path d="M2620 1445 c-503 -162 -943 -302 -977 -312 -34 -10 -59 -21 -55 -25
7 -7 1926 602 1962 623 13 7 13 8 0 8 -8 -1 -427 -133 -930 -294z"/>
<path d="M3502 1490 c-114 -38 -141 -50 -106 -50 31 1 255 75 248 83 -11 10
-19 8 -142 -33z"/>
<path d="M3294 1424 l-41 -15 103 -320 c56 -176 104 -322 106 -325 4 -3 349
104 357 112 2 2 -7 33 -21 69 l-24 67 -25 -36 c-29 -43 -29 -43 -145 -52 l-92
-6 -32 96 c-18 54 -30 99 -29 100 2 2 44 26 93 54 88 50 89 50 128 36 22 -8
42 -14 44 -14 3 0 -26 103 -30 107 -1 2 -58 -15 -127 -37 -68 -22 -129 -40
-135 -40 -6 0 -26 50 -45 110 -19 61 -36 110 -39 109 -3 0 -23 -7 -46 -15z"/>
<path d="M3367 1425 c3 -8 9 -12 14 -9 12 7 11 11 -5 17 -10 4 -13 1 -9 -8z"/>
<path d="M3391 1367 c-3 -25 34 -127 46 -127 17 0 17 11 -2 38 -9 12 -22 39
-30 59 -7 21 -14 35 -14 30z"/>
<path d="M3526 1314 c-80 -27 -77 -26 -67 -42 5 -9 28 -5 91 14 100 31 106 34
89 45 -20 13 -36 10 -113 -17z"/>
<path d="M1475 1235 c-39 -17 -21 -18 25 0 19 7 28 14 20 14 -8 0 -28 -6 -45
-14z"/>
<path d="M3650 1181 c0 -5 15 -12 33 -15 30 -6 35 -12 50 -59 22 -68 21 -76
-4 -103 -12 -13 -16 -24 -11 -28 6 -3 20 7 32 23 l21 30 -21 70 c-19 61 -25
71 -52 80 -38 13 -48 14 -48 2z"/>
<path d="M3553 1141 c-34 -20 -64 -39 -67 -42 -3 -3 5 -37 18 -75 l23 -69 84
3 c46 2 85 5 87 7 7 7 -64 215 -73 214 -5 0 -38 -17 -72 -38z"/>
<path d="M3682 1134 c3 -11 12 -40 19 -66 13 -47 22 -57 33 -39 8 13 -29 114
-44 119 -9 3 -11 -1 -8 -14z"/>
<path d="M3450 3106 c-7 -6 8 -197 15 -204 3 -3 7 -3 9 -1 6 6 -18 211 -24
205z"/>
<path d="M3474 2854 c8 -57 48 -181 53 -167 5 13 -42 192 -53 202 -4 3 -4 -12
0 -35z"/>
<path d="M3530 2663 c0 -17 84 -183 92 -183 6 0 8 3 6 8 -28 54 -78 165 -78
173 0 5 -4 9 -10 9 -5 0 -10 -3 -10 -7z"/>
<path d="M3630 2461 c0 -14 104 -154 118 -159 6 -2 -15 35 -49 82 -61 85 -69
94 -69 77z"/>
<path d="M3760 2284 c0 -5 34 -43 75 -84 41 -41 74 -68 74 -60 -2 17 -149 159
-149 144z"/>
<path d="M3930 2120 c0 -5 28 -29 63 -53 72 -51 111 -73 106 -59 -6 14 -169
123 -169 112z"/>
<path d="M4110 1999 c0 -13 168 -92 184 -86 6 3 -7 13 -29 22 -22 10 -66 30
-97 46 -32 16 -58 24 -58 18z"/>
<path d="M4322 1904 c12 -13 154 -54 185 -54 8 0 11 5 8 10 -3 6 -14 10 -24
10 -11 0 -56 11 -101 24 -55 16 -77 19 -68 10z"/>
<path d="M4537 1849 c5 -5 54 -11 109 -14 67 -3 88 -2 64 4 -56 14 -185 22
-173 10z"/>
<path d="M1190 3150 c-198 -64 -192 -61 -249 -156 -32 -52 -106 -223 -99 -229
2 -2 120 34 263 80 143 45 340 108 439 140 l178 57 -53 38 c-73 53 -214 121
-258 126 -25 3 -92 -14 -221 -56z"/>
<path d="M5402 3092 c-18 -14 -20 -20 -10 -30 15 -15 38 -16 38 -2 0 6 5 10
11 10 7 0 9 -9 6 -21 -5 -19 -3 -21 25 -15 17 3 34 6 39 6 13 0 11 44 -3 58
-18 18 -80 14 -106 -6z"/>
<path d="M5238 3079 c-10 -5 -18 -21 -18 -34 0 -23 3 -25 54 -25 29 0 74 3
101 6 l47 7 -58 28 c-61 30 -97 35 -126 18z"/>
<path d="M330 2921 c-19 -13 -4 -40 31 -58 30 -16 199 -17 233 -2 27 13 42 38
29 50 -13 12 -276 21 -293 10z"/>
<path d="M5305 2874 c-11 -3 -30 -7 -42 -10 -28 -5 -32 -48 -5 -59 35 -15 216
-17 242 -3 34 18 38 46 7 57 -29 11 -174 22 -202 15z"/>
<path d="M4601 2675 c-11 -20 -21 -40 -21 -45 0 -5 10 -25 21 -45 21 -35 24
-36 71 -33 46 3 52 6 72 41 l21 37 -21 38 c-20 34 -26 37 -72 40 -47 3 -50 2
-71 -33z m115 -20 c15 -23 15 -27 0 -50 -38 -57 -116 -12 -88 50 9 19 19 25
42 25 21 0 34 -8 46 -25z"/>
<path d="M4642 2658 c-27 -27 -6 -68 34 -68 25 0 39 28 29 60 -7 22 -44 27
-63 8z"/>
<path d="M5243 2649 c-24 -13 -38 -38 -26 -50 8 -7 211 -29 272 -29 28 0 32 3
29 23 -5 35 -64 58 -165 63 -55 2 -96 0 -110 -7z"/>
<path d="M504 2465 c3 -8 1 -15 -4 -15 -6 0 -10 5 -10 10 0 17 -18 11 -40 -12
-24 -26 -28 -63 -5 -54 8 3 15 1 15 -4 0 -5 -8 -10 -17 -12 -16 -3 -14 -7 9
-31 31 -31 71 -37 62 -9 -5 16 -5 16 8 1 16 -19 37 -9 56 28 16 29 15 33 -4
33 -14 0 -14 2 -3 16 11 14 10 20 -14 40 -32 27 -62 32 -53 9z m26 -65 c0 -13
-7 -20 -20 -20 -13 0 -20 7 -20 20 0 13 7 20 20 20 13 0 20 -7 20 -20z"/>
<path d="M5272 2377 c-27 -28 -27 -34 -4 -40 16 -4 16 -5 0 -6 -24 -1 -23 -36
2 -61 25 -25 37 -25 43 -2 4 16 5 16 6 0 1 -24 36 -23 61 2 25 25 25 37 3 43
-17 4 -17 5 0 6 24 1 21 33 -6 59 -28 27 -34 27 -40 5 -4 -17 -5 -17 -6 0 -1
24 -33 21 -59 -6z m78 -53 c0 -19 -28 -30 -42 -16 -8 8 -8 15 1 26 14 17 41
10 41 -10z"/>
<path d="M2913 2390 c-13 -5 -23 -12 -23 -15 0 -4 17 -37 39 -73 61 -106 110
-208 162 -337 46 -116 49 -120 76 -117 15 2 32 7 37 12 24 24 -227 542 -261
539 -5 0 -18 -4 -30 -9z"/>
<path d="M2175 2156 c-330 -106 -605 -194 -611 -197 -8 -3 19 -100 76 -282 48
-153 90 -280 92 -283 4 -3 1296 403 1306 412 16 12 -228 534 -253 540 -5 1
-280 -84 -610 -190z"/>
<path d="M608 2168 c-38 -12 -68 -24 -68 -27 0 -9 83 -31 113 -31 34 0 69 28
65 53 -4 29 -29 30 -110 5z"/>
<path d="M453 2120 c-44 -18 -22 -70 28 -70 30 0 93 46 83 61 -7 12 -44 11
-44 -1 0 -5 -4 -10 -10 -10 -5 0 -10 7 -10 15 0 17 -14 18 -47 5z"/>
<path d="M5117 2118 c-9 -7 -18 -23 -19 -36 -3 -21 6 -27 75 -52 128 -47 123
-48 81 10 -52 73 -104 102 -137 78z"/>
<path d="M715 1963 c-33 -14 -93 -38 -132 -55 -75 -31 -89 -49 -52 -69 29 -15
79 -4 164 35 76 36 109 65 103 92 -5 25 -16 25 -83 -3z"/>
<path d="M1420 1274 l-25 -15 25 7 c14 3 32 10 40 15 13 7 13 8 0 8 -8 0 -26
-6 -40 -15z"/>
<path d="M4922 1699 c-12 -18 -12 -24 0 -34 18 -17 148 -88 148 -81 0 21 -52
116 -68 125 -32 17 -66 13 -80 -10z"/>
<path d="M4807 1522 c-10 -10 -17 -21 -17 -24 0 -9 141 -110 146 -105 2 2 -3
27 -11 55 -24 78 -82 114 -118 74z"/>
<path d="M914 1454 c5 -12 2 -15 -11 -10 -21 8 -33 -10 -33 -52 0 -30 2 -33
22 -26 21 6 21 5 9 -10 -13 -15 -13 -19 0 -27 8 -5 29 -9 47 -9 30 0 33 2 26
22 -6 19 -5 21 8 11 21 -18 38 3 38 45 0 30 -3 34 -21 29 -17 -5 -18 -3 -8 10
17 19 -3 33 -50 33 -26 0 -32 -3 -27 -16z m46 -60 c0 -8 -7 -14 -15 -14 -8 0
-15 9 -15 20 0 13 5 18 15 14 8 -4 15 -12 15 -20z"/>
<path d="M4687 1343 c-18 -17 -2 -50 50 -100 66 -63 137 -108 158 -99 42 16
-3 83 -107 161 -57 42 -86 54 -101 38z"/>
<path d="M1651 808 c-27 -46 -48 -84 -47 -86 2 -1 28 9 58 22 61 27 98 66 98
102 0 21 -25 44 -49 44 -5 0 -32 -37 -60 -82z"/>
<path d="M4206 825 c5 -11 2 -13 -11 -9 -22 9 -35 -11 -35 -53 0 -27 3 -31 18
-26 15 6 15 4 4 -9 -11 -14 -10 -18 7 -27 31 -17 79 -13 101 9 24 24 27 80 4
80 -8 0 -12 5 -9 10 11 19 -16 40 -51 40 -26 0 -32 -3 -28 -15z m50 -74 c-10
-16 -36 -13 -43 5 -8 22 18 37 36 20 7 -8 10 -19 7 -25z"/>
<path d="M1881 733 c-34 -41 -91 -169 -91 -203 0 -24 26 -37 48 -23 22 13 79
117 99 180 13 43 14 55 3 67 -18 23 -25 20 -59 -21z"/>
<path d="M3916 732 c-15 -46 91 -252 130 -252 35 0 2 123 -58 215 -36 54 -63
68 -72 37z"/>
<path d="M2092 683 c-25 -48 -93 -245 -90 -260 10 -52 73 2 108 92 12 33 25
83 28 112 4 44 2 53 -16 62 -17 9 -23 8 -30 -6z"/>
<path d="M3612 641 c-11 -6 -5 -36 30 -146 24 -76 49 -140 55 -142 6 -2 18 4
28 13 13 14 16 28 11 63 -9 66 -47 169 -73 197 -24 26 -31 28 -51 15z"/>
<path d="M2304 609 c-4 -6 -17 -51 -29 -100 l-23 -89 53 46 c45 38 75 84 75
115 0 29 -61 51 -76 28z"/>
<path d="M2521 546 c-29 -34 -52 -233 -32 -265 14 -21 40 -5 57 35 20 48 39
182 30 217 -7 30 -36 37 -55 13z"/>
<path d="M2855 416 c-9 -173 2 -209 51 -155 16 18 19 37 19 134 0 97 -3 116
-19 134 -38 42 -44 29 -51 -113z"/>
<path d="M3082 538 c-18 -18 -14 -52 10 -78 l21 -23 9 24 c21 56 -7 110 -40
77z"/>
<path d="M3384 495 c7 -18 -10 -20 -17 -2 -4 8 -14 3 -31 -16 -30 -33 -34 -57
-8 -58 15 0 14 -1 -3 -8 -18 -7 -18 -9 7 -34 30 -30 74 -38 64 -12 -3 8 -1 15
4 15 6 0 10 -7 10 -15 0 -23 29 -6 45 26 19 35 19 39 -1 39 -14 0 -14 2 -3 16
11 14 10 20 -14 40 -32 27 -62 32 -53 9z m26 -65 c0 -13 -7 -20 -20 -20 -13 0
-20 7 -20 20 0 13 7 20 20 20 13 0 20 -7 20 -20z"/>
</g>
</svg>
